<svg width="132" height="44" viewBox="0 0 132 44" fill="none" xmlns="http://www.w3.org/2000/svg">
<g clip-path="url(#clip0_0_87)">
<path d="M11.6337 0.390625V0.576195L10.8629 0.761763V8.9839L11.6337 9.16947V9.35503H7.97946V9.16947L8.7503 8.9839V1.9751L5.7241 9.48351H5.33866L1.41317 1.9751V8.78405L2.44093 9.16947V9.35503H0V9.16947L1.02777 8.78405V0.761763L0.256931 0.576195V0.390625H1.85567C2.09834 0.390625 2.31246 0.419173 2.48376 0.476272C2.65505 0.53337 2.82637 0.604742 2.95484 0.704664C3.09758 0.804586 3.21178 0.918784 3.3117 1.04725C3.41162 1.17573 3.49728 1.33275 3.58292 1.48977L6.38072 6.84271L8.5219 1.48977C8.59327 1.3042 8.66466 1.14718 8.76459 1.01871C8.85023 0.890235 8.9644 0.776039 9.09287 0.676117C9.22134 0.576195 9.37839 0.50482 9.56396 0.461997C9.74953 0.419173 9.9779 0.390625 10.2634 0.390625H11.6337Z" fill="#292F36"/>
<path d="M16.2015 2.77454C16.7297 2.77454 17.215 2.84591 17.629 3.00293C18.043 3.15995 18.3998 3.38834 18.6996 3.67384C18.9994 3.9736 19.2135 4.33046 19.3705 4.74443C19.5275 5.15839 19.5989 5.64372 19.5989 6.17188C19.5989 6.70004 19.5275 7.18537 19.3705 7.59933C19.2135 8.01329 18.9851 8.37016 18.6996 8.66992C18.3998 8.96969 18.043 9.18381 17.629 9.34083C17.215 9.49785 16.7297 9.56922 16.2015 9.56922C15.6734 9.56922 15.1881 9.49785 14.7741 9.34083C14.3601 9.18381 14.0033 8.95541 13.7035 8.66992C13.4037 8.37016 13.1896 8.01329 13.0326 7.59933C12.8756 7.18537 12.8042 6.70004 12.8042 6.17188C12.8042 5.64372 12.8756 5.15839 13.0326 4.74443C13.1896 4.33046 13.418 3.9736 13.7035 3.67384C14.0033 3.37407 14.3601 3.15995 14.7741 3.00293C15.1881 2.84591 15.6591 2.77454 16.2015 2.77454ZM16.2015 9.32655C16.3443 9.32655 16.487 9.28373 16.6441 9.18381C16.7868 9.08389 16.9153 8.92686 17.0294 8.6842C17.1436 8.44153 17.2436 8.12749 17.315 7.7278C17.3863 7.31384 17.4291 6.79996 17.4291 6.18615C17.4291 5.55807 17.3863 5.04419 17.315 4.6445C17.2436 4.24482 17.1436 3.9165 17.0294 3.68811C16.9153 3.45972 16.7868 3.28843 16.6441 3.1885C16.5013 3.08858 16.3586 3.04576 16.2015 3.04576C16.0588 3.04576 15.9161 3.08858 15.759 3.1885C15.6163 3.28843 15.4878 3.44544 15.3736 3.68811C15.2594 3.93078 15.1595 4.24482 15.0881 4.6445C15.0168 5.05847 14.9739 5.57235 14.9739 6.18615C14.9739 6.81423 15.0168 7.32812 15.0881 7.7278C15.1595 8.12749 15.2594 8.45581 15.3736 8.6842C15.4878 8.91259 15.6163 9.08389 15.759 9.18381C15.9018 9.26945 16.0445 9.32655 16.2015 9.32655Z" fill="#292F36"/>
<path d="M25.8369 0.390625C26.6078 0.390625 26.9932 0.776037 26.9932 1.54686V8.99817L27.764 9.18373V9.3693H26.6078C26.2937 9.3693 26.051 9.32649 25.8655 9.22657C25.6799 9.12665 25.5229 9.01244 25.423 8.89824C25.2945 8.7555 25.1946 8.58421 25.1375 8.41292C25.0233 8.6413 24.8805 8.82687 24.7092 8.99817C24.5665 9.14091 24.3666 9.26938 24.124 9.39785C23.8813 9.52633 23.5958 9.58342 23.2675 9.58342C22.8964 9.58342 22.5538 9.51205 22.2397 9.3693C21.9114 9.22656 21.6402 9.01245 21.4118 8.72696C21.1834 8.44147 20.9836 8.0846 20.8551 7.67064C20.7124 7.24241 20.6553 6.75707 20.6553 6.18609C20.6553 5.61511 20.7267 5.12978 20.8551 4.70154C20.9979 4.2733 21.1834 3.93072 21.4404 3.64523C21.683 3.35972 21.9828 3.14562 22.3254 3.00287C22.668 2.86012 23.0534 2.78874 23.4816 2.78874C23.71 2.78874 23.9099 2.8173 24.0954 2.86012C24.281 2.91722 24.438 2.97432 24.5665 3.04569C24.7235 3.11706 24.852 3.2027 24.9662 3.30263V0.804588L24.1954 0.619017V0.43345H25.8369V0.390625ZM24.9376 3.67376C24.8377 3.57384 24.7521 3.4882 24.6379 3.41683C24.538 3.34546 24.438 3.28836 24.3238 3.23126C24.2096 3.17415 24.0954 3.15988 23.967 3.15988C23.81 3.15988 23.6529 3.20271 23.5102 3.28836C23.3674 3.37401 23.2532 3.51675 23.139 3.73087C23.0391 3.94498 22.9535 4.25902 22.8964 4.64443C22.8393 5.04413 22.8107 5.54374 22.8107 6.17181C22.8107 6.78561 22.8393 7.27096 22.8964 7.65636C22.9535 8.04177 23.0249 8.34154 23.1248 8.55565C23.2104 8.76977 23.3104 8.9268 23.4388 8.99817C23.553 9.06954 23.6672 9.11236 23.7814 9.11236C23.9812 9.11236 24.1525 9.05527 24.2953 8.95535C24.438 8.85542 24.5522 8.72696 24.6521 8.59848C24.7663 8.44147 24.8663 8.27017 24.9519 8.0846V3.67376H24.9376Z" fill="#292F36"/>
<path d="M32.0605 9.5835C30.9614 9.5835 30.1049 9.28374 29.5054 8.68421C28.8916 8.08467 28.5918 7.24248 28.5918 6.18616C28.5918 5.658 28.6632 5.17267 28.8202 4.75871C28.9772 4.34475 29.1913 3.98788 29.4626 3.68812C29.7338 3.38835 30.0621 3.17424 30.4618 3.01722C30.8472 2.8602 31.2754 2.78882 31.7465 2.78882C32.2318 2.78882 32.6601 2.8602 33.0312 2.98867C33.4166 3.13141 33.7306 3.31698 34.0019 3.54537C34.2731 3.77377 34.4729 4.04498 34.6157 4.35902C34.7584 4.67306 34.8298 5.00138 34.8298 5.35824C34.8298 5.47243 34.8298 5.58663 34.8155 5.67228C34.8012 5.75793 34.787 5.84357 34.7727 5.91495C34.7441 6.00059 34.7298 6.07197 34.7013 6.12906C34.3302 6.20044 33.9305 6.27181 33.5022 6.31463C33.1454 6.37173 32.7314 6.41455 32.2604 6.4431C31.7893 6.47165 31.304 6.5002 30.7901 6.5002C30.7901 7.02836 30.8329 7.47087 30.9043 7.82774C30.9756 8.1846 31.0898 8.47009 31.2183 8.66993C31.3611 8.88405 31.5181 9.0268 31.7036 9.11244C31.8892 9.19809 32.1034 9.24091 32.3175 9.24091C32.5744 9.24091 32.8171 9.19809 33.0454 9.09817C33.2738 8.99825 33.4737 8.88405 33.6307 8.72703C33.802 8.57001 33.9305 8.38444 34.0304 8.1846C34.1303 7.98476 34.1731 7.78491 34.1731 7.57079H34.4872C34.4872 7.82773 34.4301 8.0704 34.3159 8.31307C34.2017 8.55573 34.0304 8.76985 33.8163 8.95542C33.6022 9.14099 33.3452 9.28374 33.0454 9.39793C32.76 9.5264 32.4316 9.5835 32.0605 9.5835ZM30.7758 6.17189C31.0613 6.17189 31.3182 6.17189 31.5466 6.15761C31.775 6.14334 31.9606 6.12906 32.1176 6.11479C32.3032 6.10052 32.4459 6.07196 32.5744 6.05769C32.5887 5.97204 32.6172 5.87212 32.6315 5.7722C32.6458 5.67228 32.6601 5.57236 32.6743 5.45816C32.6886 5.34396 32.6886 5.2155 32.6886 5.08702C32.6886 4.70161 32.66 4.3733 32.6029 4.11636C32.5458 3.85941 32.4745 3.64529 32.3745 3.474C32.2889 3.31698 32.189 3.18851 32.0605 3.13141C31.932 3.07431 31.8321 3.03149 31.7179 3.03149C31.6037 3.03149 31.4895 3.07431 31.3753 3.15996C31.2612 3.24561 31.1612 3.40263 31.0613 3.61675C30.9757 3.84514 30.89 4.15918 30.8329 4.57314C30.7758 4.9871 30.7758 5.51526 30.7758 6.17189Z" fill="#292F36"/>
<path d="M40.2255 3.21699C39.9686 3.21699 39.7402 3.27409 39.5403 3.37401C39.3405 3.47393 39.1692 3.6024 39.0264 3.73087C38.8694 3.88789 38.7409 4.05919 38.6125 4.24476V8.99818L39.3833 9.18374V9.36931H35.7861V9.18374L36.557 8.99818V3.34546L35.7861 3.15989V2.97432H36.9424C37.2421 2.97432 37.4848 3.03142 37.6846 3.13134C37.8702 3.23126 38.0272 3.34546 38.1414 3.45966C38.2699 3.6024 38.3698 3.75942 38.4269 3.93071C38.5554 3.74515 38.7124 3.57385 38.898 3.41683C39.055 3.28836 39.2549 3.17417 39.4975 3.05997C39.7402 2.94577 40.0114 2.90295 40.3397 2.90295C40.7965 2.90295 41.1391 3.01714 41.3675 3.21699C41.5959 3.43111 41.6958 3.73087 41.6958 4.11629C41.6958 4.40178 41.6101 4.64444 41.4388 4.81574C41.2675 4.98703 41.0249 5.07268 40.7394 5.07268C40.668 5.07268 40.6109 5.07268 40.5395 5.07268C40.4682 5.07268 40.4254 5.0584 40.3825 5.0584C40.3254 5.04413 40.2683 5.04413 40.2255 5.01558V3.21699Z" fill="#292F36"/>
<path d="M47.2201 4.88715C47.2201 4.60166 47.1915 4.34472 47.1344 4.13061C47.0773 3.91649 47.006 3.74519 46.9061 3.61672C46.8204 3.47398 46.7205 3.37405 46.592 3.31695C46.4778 3.25986 46.3636 3.21703 46.2494 3.21703C46.0496 3.21703 45.8783 3.27413 45.7355 3.37405C45.5928 3.47398 45.4643 3.60245 45.3787 3.73092C45.2645 3.88794 45.1788 4.05923 45.0932 4.2448V8.99822L45.864 9.18379V9.36936H42.2668V9.18379L43.0376 8.99822V3.3455L42.2668 3.15994V2.97437H43.4231C43.7228 2.97437 43.9655 3.03147 44.1653 3.13139C44.3509 3.23131 44.5079 3.3455 44.6221 3.4597C44.7506 3.60245 44.8505 3.75947 44.9076 3.93076C45.0218 3.71664 45.1646 3.5168 45.3359 3.3455C45.4786 3.20276 45.6784 3.07429 45.9068 2.94582C46.1352 2.81735 46.435 2.76025 46.7776 2.76025C47.1487 2.76025 47.4913 2.81735 47.7911 2.94582C48.1051 3.06002 48.362 3.23131 48.5762 3.41688C48.7903 3.61672 48.9616 3.83084 49.0901 4.08778C49.2185 4.34472 49.2756 4.60166 49.2756 4.87288V8.98395L50.0464 9.16951V9.35509H48.3763C47.6055 9.35509 47.2201 8.96967 47.2201 8.19885V4.88715Z" fill="#292F36"/>
<path d="M1.35596 18.3908V17.8626H11.2767V18.3908L9.19266 18.919V29.6962H16.6725V18.919L14.5884 18.3908V17.8626H24.5093V18.3908L22.4251 18.919V41.1872L24.5093 41.7154V42.2436H14.5884V41.7011L16.6725 41.173V30.567H9.19266V41.173L11.2767 41.7011V42.2293H1.35596V41.7011L3.44003 41.173V18.9047L1.35596 18.3908Z" fill="#292F36"/>
<path d="M36.8424 24.3005C38.2842 24.3005 39.5689 24.5146 40.7108 24.9285C41.8528 25.3425 42.8092 25.9563 43.6085 26.7557C44.4079 27.555 45.0217 28.5257 45.4357 29.6677C45.8496 30.8096 46.0638 32.0943 46.0638 33.5361C46.0638 34.9778 45.8496 36.2625 45.4357 37.4045C45.0217 38.5464 44.4079 39.5028 43.6085 40.3022C42.8092 41.1016 41.8385 41.7154 40.7108 42.1293C39.5689 42.5433 38.2842 42.7574 36.8424 42.7574C35.4007 42.7574 34.116 42.5433 32.974 42.1293C31.8321 41.7154 30.8757 41.1016 30.0763 40.3022C29.2769 39.5028 28.6631 38.5322 28.2492 37.4045C27.8352 36.2625 27.6211 34.9778 27.6211 33.5361C27.6211 32.0943 27.8352 30.8096 28.2492 29.6677C28.6631 28.5257 29.2769 27.5693 30.0763 26.7557C30.8757 25.942 31.8464 25.3425 32.974 24.9285C34.116 24.5146 35.4007 24.3005 36.8424 24.3005ZM36.8424 42.0437C37.2421 42.0437 37.6276 41.9152 38.0272 41.6583C38.4269 41.4013 38.7695 40.9588 39.0835 40.3165C39.3976 39.6741 39.6545 38.8034 39.8544 37.7042C40.0542 36.6051 40.1541 35.2062 40.1541 33.5075C40.1541 31.8089 40.0542 30.4099 39.8544 29.3108C39.6545 28.2117 39.3976 27.3409 39.0835 26.6986C38.7695 26.0562 38.4127 25.6137 38.0272 25.3568C37.6418 25.0998 37.2421 24.9714 36.8424 24.9714C36.4427 24.9714 36.0574 25.0998 35.6577 25.3568C35.258 25.6137 34.9154 26.0562 34.6013 26.6986C34.2873 27.3409 34.0304 28.2117 33.8305 29.3108C33.6307 30.4099 33.5307 31.8089 33.5307 33.5075C33.5307 35.2062 33.6307 36.6051 33.8305 37.7042C34.0304 38.8034 34.2873 39.6741 34.6013 40.3165C34.9154 40.9588 35.2723 41.4013 35.6577 41.6583C36.0574 41.9152 36.4427 42.0437 36.8424 42.0437Z" fill="#292F36"/>
<path d="M72.1436 30.0388C72.1436 29.2109 72.0722 28.4971 71.9295 27.9404C71.7867 27.3837 71.6154 26.9127 71.387 26.5558C71.1587 26.199 70.916 25.942 70.659 25.7707C70.3878 25.6137 70.1309 25.528 69.8739 25.528C69.4314 25.528 69.046 25.6708 68.7034 25.9563C68.3608 26.2418 68.0754 26.5701 67.8184 26.9127C67.5472 27.3266 67.2902 27.7977 67.0904 28.2973V41.1729L69.1888 41.7011V42.2293H59.4535V41.7011L61.5376 41.1729V30.0388C61.5376 29.2109 61.4662 28.4971 61.3235 27.9404C61.1807 27.3837 61.0094 26.9127 60.781 26.5558C60.5526 26.199 60.31 25.942 60.0531 25.7707C59.7818 25.6137 59.5249 25.528 59.2679 25.528C58.8254 25.528 58.44 25.6708 58.0975 25.9563C57.7549 26.2418 57.4693 26.5701 57.2124 26.9127C56.9269 27.3266 56.6843 27.7977 56.4844 28.2973V41.1729L58.5685 41.7011V42.2293H48.8333V41.7011L50.9174 41.1729V25.8706L48.8333 25.3425V24.8143H51.9594C52.773 24.8143 53.4439 24.9571 53.9578 25.2283C54.486 25.4995 54.8857 25.8135 55.1997 26.1276C55.5423 26.5273 55.7992 26.9555 55.9705 27.4123C56.2703 26.827 56.6414 26.3131 57.0839 25.8421C57.4836 25.4424 57.969 25.0855 58.54 24.7572C59.1252 24.4289 59.8247 24.2719 60.6669 24.2719C62.0515 24.2719 63.2648 24.5859 64.264 25.1997C65.2775 25.8135 66.0484 26.6129 66.5765 27.5836C66.8763 26.984 67.2474 26.4416 67.6899 25.942C68.0896 25.528 68.5749 25.1426 69.1459 24.8C69.7312 24.4575 70.4306 24.2719 71.2728 24.2719C72.2292 24.2719 73.0857 24.4289 73.8851 24.7287C74.6702 25.0284 75.3554 25.4424 75.9263 25.9706C76.4973 26.4987 76.9398 27.0982 77.2539 27.7977C77.5679 28.4972 77.7249 29.2394 77.7249 30.0245V41.1587L79.809 41.6868V42.215H75.284C73.1999 42.215 72.1578 41.1729 72.1578 39.0889V30.0388H72.1436Z" fill="#292F36"/>
<path d="M91.2857 42.7432C88.3166 42.7432 86.0041 41.9296 84.3626 40.288C82.721 38.6464 81.8931 36.4053 81.8931 33.5219C81.8931 32.0802 82.1072 30.7955 82.5211 29.6535C82.9351 28.5115 83.5204 27.5551 84.2626 26.7415C85.0049 25.9421 85.9042 25.3283 86.9606 24.9143C88.0169 24.5004 89.1731 24.2863 90.415 24.2863C91.7139 24.2863 92.8845 24.4718 93.9122 24.843C94.94 25.2141 95.825 25.7137 96.5388 26.3418C97.2525 26.9699 97.8092 27.7122 98.1946 28.5544C98.58 29.3965 98.7656 30.2958 98.7656 31.2522C98.7656 31.5806 98.7513 31.866 98.7085 32.1087C98.6656 32.3514 98.6371 32.5655 98.58 32.7511C98.5086 32.9795 98.4515 33.1793 98.4087 33.3363C97.3809 33.5504 96.3104 33.7217 95.1684 33.8645C94.1977 34.0072 93.07 34.1214 91.7996 34.2356C90.5292 34.3355 89.1874 34.3926 87.8027 34.3926C87.8027 35.8344 87.9027 37.0334 88.1168 37.9898C88.3309 38.9462 88.6164 39.717 88.9875 40.288C89.3587 40.859 89.8012 41.2587 90.315 41.5014C90.8289 41.744 91.3856 41.8725 91.9852 41.8725C92.6846 41.8725 93.3413 41.744 93.9551 41.4871C94.5689 41.2301 95.097 40.8876 95.5538 40.4593C96.0106 40.0311 96.3675 39.5457 96.6387 39.0033C96.9099 38.4609 97.0384 37.9042 97.0384 37.3475H97.9091C97.9091 38.0469 97.7521 38.7178 97.4381 39.3602C97.124 40.0168 96.6815 40.5878 96.0962 41.0874C95.511 41.587 94.8258 41.9867 94.0122 42.2865C93.1843 42.5862 92.2707 42.7432 91.2857 42.7432ZM87.8027 33.5219C88.5878 33.5219 89.2873 33.5076 89.8868 33.4648C90.4863 33.422 91.0002 33.3934 91.4142 33.3506C91.8995 33.3078 92.3135 33.2507 92.6704 33.1793C92.7132 32.9509 92.7703 32.694 92.8417 32.4085C92.8845 32.1515 92.9273 31.866 92.9558 31.552C92.9844 31.238 93.0129 30.9096 93.0129 30.5671C93.0129 29.525 92.9273 28.6543 92.7703 27.9405C92.6132 27.2268 92.3991 26.6558 92.1565 26.2133C91.9138 25.7708 91.6283 25.4568 91.3286 25.2712C91.0145 25.0856 90.7004 24.9857 90.4007 24.9857C90.1009 24.9857 89.7869 25.0999 89.4728 25.314C89.1588 25.5424 88.8876 25.9564 88.6449 26.5702C88.4023 27.184 88.2024 28.0547 88.0311 29.1682C87.8884 30.2816 87.8027 31.7376 87.8027 33.5219Z" fill="#292F36"/>
<path d="M115.852 41.8725V27.755L103.376 17.877V41.8725H115.852Z" fill="#292F36"/>
<path d="M131.283 41.8725V27.755L119.007 17.877V41.8725H131.283Z" fill="#292F36"/>
</g>
<defs>
<clipPath id="clip0_0_87">
<rect width="132" height="43" fill="white" transform="translate(0 0.390625)"/>
</clipPath>
</defs>
</svg>
