<svg width="117" height="49" viewBox="0 0 117 49" fill="none" xmlns="http://www.w3.org/2000/svg">
<g clip-path="url(#clip0_0_146)">
<path d="M0 29.5963V0.390625H17.2008V29.582H0V29.5963ZM15.1168 22.8016L15.5593 19.5756L13.9605 19.4186L13.4752 21.9023C12.4759 22.4019 11.2483 22.6446 9.77807 22.6446C7.77963 22.6446 6.19515 22.0165 5.03891 20.7461C3.8684 19.4757 3.29741 17.8055 3.29741 15.7215C3.29741 13.6945 3.8684 12.0243 4.99609 10.7111C6.12378 9.39786 7.60836 8.74123 9.44978 8.74123C10.3919 8.74123 11.1912 8.85542 11.8336 9.06954C12.476 9.28366 13.0612 9.56915 13.6179 9.94028L14.089 12.3955L15.7163 12.2385L15.2452 9.01245C14.5601 8.42719 13.7464 7.95613 12.8043 7.58499C11.8621 7.22812 10.6917 7.04255 9.30703 7.04255C7.66545 7.04255 6.25227 7.44225 5.06749 8.2559C3.8827 9.06954 2.95485 10.1401 2.29822 11.4676C1.64159 12.8094 1.31328 14.2512 1.31328 15.7928C1.31328 18.2338 2.06982 20.275 3.58292 21.9023C5.09602 23.5296 7.0659 24.3433 9.50685 24.3433C11.905 24.3433 13.775 23.8294 15.1168 22.8016Z" fill="#292F36"/>
<path d="M23.0391 29.5963V0.390625H30.4333V29.582H23.0391V29.5963ZM23.8241 24.0863H29.6624V22.6161H27.6498V6.31456H23.7956V7.78483H25.8369V22.6161H23.8241V24.0863Z" fill="#292F36"/>
<path d="M36.2717 29.5963V0.390625H49.2616V29.582H36.2717V29.5963ZM38.627 13.4661L38.2131 16.1211L39.7119 16.3067L40.1544 14.3225C40.7968 14.0085 41.5248 13.8515 42.3812 13.8515C43.409 13.8515 44.1085 14.1084 44.4653 14.6223C44.8222 15.1362 44.9935 15.8071 44.9935 16.635V17.6628C44.6795 17.6342 44.3511 17.6057 43.9943 17.5914C43.6374 17.5771 43.2948 17.5629 42.9522 17.5629C41.6675 17.5629 40.4399 17.7913 39.2979 18.248C38.156 18.7048 37.585 19.6612 37.585 21.103C37.585 22.3306 37.9704 23.1728 38.7555 23.6295C39.5406 24.1006 40.3114 24.329 41.068 24.329C41.9958 24.329 42.7952 24.0863 43.4518 23.601C44.1084 23.1157 44.6224 22.5732 44.9935 21.9451V22.0022C45.022 23.5582 45.7215 24.329 47.0919 24.329C47.62 24.329 48.1196 24.2005 48.5907 23.9436L48.5621 22.7588C48.3337 22.8587 48.0768 22.9158 47.7913 22.9158C47.1347 22.9158 46.8063 22.5019 46.8063 21.6739V16.2068C46.8063 13.6374 45.436 12.3527 42.6953 12.3527C41.9387 12.3527 41.225 12.4383 40.5541 12.6096C39.8689 12.7952 39.2265 13.0807 38.627 13.4661ZM44.9792 19.7754C44.9078 20.7175 44.5224 21.4741 43.823 22.0165C43.1235 22.5732 42.3812 22.8444 41.5819 22.8444C41.0822 22.8444 40.5969 22.7017 40.1402 22.4305C39.6691 22.1593 39.4407 21.6454 39.4407 20.9031C39.4407 20.0038 39.7976 19.4328 40.4827 19.1616C41.1822 18.8904 41.953 18.7619 42.8237 18.7619C43.2091 18.7619 43.5803 18.7762 43.9371 18.819C44.294 18.8476 44.6509 18.8761 44.9649 18.8904V19.7754H44.9792Z" fill="#292F36"/>
<path d="M55.114 29.5963V0.390625H66.919V29.582H55.114V29.5963ZM65.6772 20.7604C65.6772 19.8468 65.4345 19.1759 64.9491 18.7334C64.4638 18.2909 63.8786 17.9911 63.1648 17.8198C62.4511 17.6485 61.7517 17.5058 61.0522 17.3916C60.3528 17.2774 59.7532 17.0918 59.2679 16.8491C58.7826 16.6065 58.5399 16.1782 58.5399 15.5644C58.5399 14.9792 58.7683 14.5509 59.2393 14.2655C59.7104 13.98 60.2956 13.8515 61.0236 13.8515C61.8658 13.8515 62.651 14.0371 63.379 14.4225L63.6645 16.2782L65.1633 16.0926L64.8778 13.409C64.3925 13.1092 63.8072 12.8665 63.1078 12.6667C62.4083 12.4669 61.666 12.3527 60.8666 12.3527C59.8103 12.3527 58.8397 12.6096 57.9404 13.1092C57.0411 13.6088 56.5986 14.4653 56.5986 15.6929C56.5986 16.5922 56.8412 17.2488 57.3265 17.6628C57.8119 18.091 58.4114 18.3765 59.1394 18.5478C59.8674 18.7191 60.5811 18.8618 61.2949 18.9903C62.0086 19.1045 62.6081 19.3044 63.0935 19.5613C63.5788 19.8182 63.8215 20.2608 63.8215 20.9031C63.8215 21.5597 63.5074 22.0451 62.8793 22.3591C62.2512 22.6732 61.5375 22.8302 60.7239 22.8302C59.8103 22.8302 58.9538 22.6446 58.1687 22.2592L58.2401 20.7318L56.7984 20.5748L56.4415 23.187C56.9411 23.5153 57.5978 23.7866 58.3971 24.0007C59.1965 24.2148 59.9959 24.329 60.8095 24.329C62.1942 24.329 63.3504 24.015 64.2783 23.3726C65.2061 22.7588 65.6772 21.8738 65.6772 20.7604Z" fill="#292F36"/>
<path d="M72.7573 29.5963V0.390625H84.5623V29.582H72.7573V29.5963ZM83.3204 20.7604C83.3204 19.8468 83.0777 19.1759 82.5924 18.7334C82.1071 18.2909 81.5218 17.9911 80.8081 17.8198C80.0944 17.6485 79.3949 17.5058 78.6955 17.3916C77.996 17.2774 77.3965 17.0918 76.9112 16.8491C76.4258 16.6065 76.1832 16.1782 76.1832 15.5644C76.1832 14.9792 76.4115 14.5509 76.8826 14.2655C77.3537 13.98 77.9389 13.8515 78.6669 13.8515C79.5091 13.8515 80.2942 14.0371 81.0222 14.4225L81.3078 16.2782L82.8066 16.0926L82.5211 13.409C82.0357 13.1092 81.4505 12.8665 80.751 12.6667C80.0516 12.4669 79.3093 12.3527 78.5099 12.3527C77.4536 12.3527 76.4829 12.6096 75.5837 13.1092C74.6844 13.6088 74.2418 14.4653 74.2418 15.6929C74.2418 16.5922 74.4845 17.2488 74.9699 17.6628C75.4552 18.091 76.0548 18.3765 76.7828 18.5478C77.5108 18.7191 78.2244 18.8618 78.9381 18.9903C79.6519 19.1045 80.2514 19.3044 80.7367 19.5613C81.2221 19.8182 81.4648 20.2608 81.4648 20.9031C81.4648 21.5597 81.1508 22.0451 80.5227 22.3591C79.8946 22.6732 79.1809 22.8302 78.3672 22.8302C77.4536 22.8302 76.5971 22.6446 75.812 22.2592L75.8835 20.7318L74.4417 20.5748L74.0848 23.187C74.5845 23.5153 75.2411 23.7866 76.0404 24.0007C76.8398 24.2148 77.6392 24.329 78.4528 24.329C79.8375 24.329 80.9937 24.015 81.9216 23.3726C82.8494 22.7588 83.3204 21.8738 83.3204 20.7604Z" fill="#292F36"/>
<path d="M90.4006 29.5963V0.390625H98.1803V29.582H90.4006V29.5963ZM91.5426 24.0863H97.3809V22.6161H95.3681V12.5953H91.4998V14.0656H93.5695V22.6161H91.5569V24.0863H91.5426ZM93.3698 7.27096V9.62626H95.3397V7.27096H93.3698Z" fill="#292F36"/>
<path d="M104.019 29.5963V0.390625H116.452V29.582H104.019V29.5963ZM115.338 20.2179L113.782 19.8753C113.44 21.8167 112.398 22.7873 110.685 22.7873C109.543 22.7873 108.672 22.4019 108.073 21.6311C107.473 20.8603 107.173 19.7754 107.173 18.4051C107.173 17.1632 107.444 16.1069 107.973 15.2218C108.501 14.3368 109.386 13.9086 110.613 13.9086C111.556 13.9086 112.383 14.1227 113.069 14.5509L113.511 16.4923L115.01 16.3067L114.567 13.5374C113.982 13.0949 113.368 12.7809 112.726 12.6096C112.084 12.4383 111.384 12.3527 110.628 12.3527C108.843 12.3527 107.487 12.9807 106.602 14.2369C105.703 15.4931 105.26 16.9205 105.26 18.505C105.26 20.3464 105.731 21.7881 106.688 22.8016C107.63 23.8294 108.9 24.3433 110.485 24.3433C112.069 24.3433 113.24 23.9008 113.982 23.03C114.725 22.145 115.181 21.2171 115.338 20.2179Z" fill="#292F36"/>
<path d="M7.43708 45.5409C7.10877 46.1404 6.62342 46.6115 5.99534 46.9398C5.35298 47.2681 4.59643 47.4394 3.7114 47.4394H1.15625V39.3886H3.7114C4.59643 39.3886 5.36726 39.5456 5.99534 39.8739C6.62342 40.2022 7.10877 40.659 7.43708 41.2728C7.76539 41.8866 7.92241 42.5861 7.92241 43.414C7.92241 44.2277 7.76539 44.9414 7.43708 45.5409ZM6.02387 45.6979C6.58058 45.1555 6.85182 44.3989 6.85182 43.414C6.85182 42.4291 6.58058 41.6725 6.02387 41.1301C5.46716 40.5876 4.66779 40.3164 3.61147 40.3164H2.16977V46.5116H3.61147C4.66779 46.5116 5.46716 46.2404 6.02387 45.6979Z" fill="#292F36"/>
<path d="M13.2183 40.2308V42.9858H16.2731V43.7851H13.2183V46.5972H16.6157V47.4394H12.1763V39.3886H16.6157V40.2308H13.2183Z" fill="#292F36"/>
<path d="M25.6372 46.4117C25.4516 46.74 25.1803 47.0113 24.8092 47.2111C24.4381 47.411 23.9813 47.5252 23.4246 47.5252C22.8964 47.5252 22.4111 47.4252 21.9971 47.2397C21.5832 47.0398 21.2549 46.7829 20.9979 46.4403C20.7553 46.0977 20.6125 45.7123 20.5697 45.284H21.6831C21.7116 45.5124 21.783 45.7408 21.9115 45.9549C22.0399 46.1691 22.2398 46.3546 22.4824 46.4974C22.7251 46.6401 23.0249 46.7115 23.3818 46.7115C23.8385 46.7115 24.1954 46.5973 24.4381 46.3404C24.6808 46.0834 24.8092 45.7837 24.8092 45.3982C24.8092 45.0699 24.7236 44.7987 24.5523 44.5989C24.381 44.399 24.1669 44.2277 23.9242 44.1135C23.6815 43.9993 23.3247 43.8709 22.8964 43.7281C22.3825 43.5568 21.9829 43.3998 21.6688 43.2571C21.3548 43.1143 21.0978 42.8859 20.8837 42.5862C20.6696 42.2864 20.5554 41.901 20.5554 41.4156C20.5554 41.0017 20.6553 40.6305 20.8552 40.3022C21.055 39.9882 21.3405 39.7313 21.7259 39.56C22.097 39.3887 22.5539 39.303 23.0535 39.303C23.8386 39.303 24.4809 39.4886 24.9377 39.874C25.4087 40.2594 25.6657 40.7447 25.7513 41.3443H24.6379C24.5808 41.0302 24.4095 40.7447 24.1526 40.5021C23.8814 40.2594 23.5245 40.1309 23.0677 40.1309C22.6537 40.1309 22.3112 40.2451 22.0685 40.4593C21.8116 40.6734 21.6974 40.9874 21.6974 41.3728C21.6974 41.6869 21.783 41.9438 21.9401 42.1294C22.1113 42.3292 22.3112 42.472 22.5538 42.5862C22.7965 42.7004 23.1391 42.8146 23.553 42.9573C24.0669 43.1286 24.4809 43.2856 24.8092 43.4426C25.1232 43.5997 25.3945 43.828 25.6086 44.1278C25.8227 44.4276 25.9369 44.8415 25.9369 45.3554C25.9084 45.7266 25.8227 46.0834 25.6372 46.4117Z" fill="#292F36"/>
<path d="M31.2042 39.3886V47.4394H30.1621V39.3886H31.2042Z" fill="#292F36"/>
<path d="M41.7387 40.0025C42.381 40.4736 42.8093 41.1016 43.0234 41.901H41.9243C41.7387 41.4157 41.4104 41.016 40.9679 40.7305C40.5253 40.4307 39.9972 40.288 39.3834 40.288C38.841 40.288 38.3413 40.4165 37.9131 40.6734C37.4848 40.9303 37.1423 41.2872 36.8854 41.7583C36.6427 42.2293 36.5142 42.786 36.5142 43.4284C36.5142 44.085 36.6427 44.656 36.8854 45.1271C37.128 45.5981 37.4849 45.9693 37.9274 46.2262C38.3699 46.4831 38.8838 46.6116 39.469 46.6116C39.9687 46.6116 40.4111 46.4974 40.8251 46.2976C41.2391 46.0834 41.5674 45.7694 41.8386 45.3697C42.1098 44.97 42.2526 44.4847 42.3097 43.9423H39.1407V43.1714H43.1804V44.1278C43.109 44.7702 42.9092 45.3412 42.5809 45.8693C42.2526 46.3975 41.8101 46.7972 41.2534 47.0969C40.6967 47.3967 40.0686 47.5537 39.3548 47.5537C38.584 47.5537 37.8988 47.3824 37.2993 47.0398C36.6998 46.6973 36.243 46.2119 35.9147 45.5838C35.5863 44.97 35.415 44.2563 35.415 43.4569C35.415 42.6576 35.5863 41.9438 35.9147 41.33C36.243 40.7162 36.714 40.2166 37.2993 39.874C37.8845 39.5314 38.5697 39.3459 39.3405 39.3459C40.3112 39.3173 41.0963 39.5457 41.7387 40.0025Z" fill="#292F36"/>
<path d="M53.7152 47.4394H52.6732L48.4907 41.073V47.4394H47.4487V39.3886H48.4907L52.6732 45.755V39.3886H53.7152V47.4394Z" fill="#292F36"/>
<path d="M68.7319 46.4117C68.5463 46.74 68.2751 47.0113 67.9039 47.2111C67.5328 47.411 67.076 47.5252 66.5193 47.5252C65.9912 47.5252 65.5058 47.4252 65.0919 47.2397C64.6779 47.0398 64.3496 46.7829 64.0927 46.4403C63.85 46.0977 63.7073 45.7123 63.6644 45.284H64.7778C64.8064 45.5124 64.8778 45.7408 65.0062 45.9549C65.1347 46.1691 65.3345 46.3546 65.5772 46.4974C65.8198 46.6401 66.1196 46.7115 66.4765 46.7115C66.9333 46.7115 67.2901 46.5973 67.5328 46.3404C67.7754 46.0834 67.9039 45.7837 67.9039 45.3982C67.9039 45.0699 67.8183 44.7987 67.647 44.5989C67.4757 44.399 67.2616 44.2277 67.0189 44.1135C66.7762 43.9993 66.4194 43.8709 65.9912 43.7281C65.4773 43.5568 65.0776 43.3998 64.7635 43.2571C64.4495 43.1143 64.1926 42.8859 63.9784 42.5862C63.7643 42.2864 63.6501 41.901 63.6501 41.4156C63.6501 41.0017 63.75 40.6305 63.9499 40.3022C64.1497 39.9882 64.4353 39.7313 64.8207 39.56C65.1918 39.3887 65.6486 39.303 66.1482 39.303C66.9333 39.303 67.5757 39.4886 68.0324 39.874C68.5035 40.2594 68.7605 40.7447 68.8461 41.3443H67.7326C67.6755 41.0302 67.5042 40.7447 67.2473 40.5021C66.9761 40.2594 66.6193 40.1309 66.1625 40.1309C65.7485 40.1309 65.4059 40.2451 65.1632 40.4593C64.9063 40.6734 64.7921 40.9874 64.7921 41.3728C64.7921 41.6869 64.8777 41.9438 65.0347 42.1294C65.206 42.3292 65.4059 42.472 65.6485 42.5862C65.8912 42.7004 66.2338 42.8146 66.6478 42.9573C67.1616 43.1286 67.5756 43.2856 67.9039 43.4426C68.218 43.5997 68.4892 43.828 68.7033 44.1278C68.9174 44.4276 69.0316 44.8415 69.0316 45.3554C69.003 45.7266 68.9174 46.0834 68.7319 46.4117Z" fill="#292F36"/>
<path d="M78.196 39.3886V40.2308H75.9263V47.4394H74.87V40.2308H72.6003V39.3886H78.196Z" fill="#292F36"/>
<path d="M83.0493 39.3886V44.2134C83.0493 44.9985 83.2206 45.5837 83.5775 45.9691C83.9343 46.3403 84.4054 46.5401 85.0335 46.5401C85.6473 46.5401 86.1184 46.3546 86.461 45.9691C86.8035 45.5837 86.9748 45.0128 86.9748 44.2277V39.4029H88.0169V44.2277C88.0169 45.3268 87.7457 46.1547 87.2033 46.6971C86.6608 47.2539 85.9328 47.5251 85.0192 47.5251C84.1199 47.5251 83.392 47.2539 82.8495 46.6971C82.3071 46.1404 82.0359 45.3268 82.0359 44.2277V39.4029H83.0493V39.3886Z" fill="#292F36"/>
<path d="M98.7656 45.5409C98.4373 46.1404 97.9519 46.6115 97.3239 46.9398C96.6815 47.2681 95.925 47.4394 95.04 47.4394H92.4849V39.3886H95.04C95.925 39.3886 96.6958 39.5456 97.3239 39.8739C97.9519 40.2022 98.4373 40.659 98.7656 41.2728C99.0939 41.8866 99.251 42.5861 99.251 43.414C99.251 44.2277 99.0939 44.9414 98.7656 45.5409ZM97.3667 45.6979C97.9234 45.1555 98.1947 44.3989 98.1947 43.414C98.1947 42.4291 97.9234 41.6725 97.3667 41.1301C96.81 40.5876 96.0106 40.3164 94.9543 40.3164H93.5126V46.5116H94.9543C95.9964 46.5116 96.81 46.2404 97.3667 45.6979Z" fill="#292F36"/>
<path d="M104.561 39.3886V47.4394H103.519V39.3886H104.561Z" fill="#292F36"/>
<path d="M114.782 39.8169C115.381 40.1738 115.852 40.6591 116.195 41.2872C116.537 41.9152 116.709 42.629 116.709 43.4141C116.709 44.1992 116.537 44.9129 116.195 45.541C115.852 46.1691 115.381 46.6544 114.782 47.0113C114.182 47.3681 113.511 47.5394 112.769 47.5394C112.027 47.5394 111.341 47.3681 110.742 47.0113C110.142 46.6544 109.657 46.1691 109.314 45.541C108.972 44.9129 108.801 44.1992 108.801 43.4141C108.801 42.629 108.972 41.9152 109.314 41.2872C109.657 40.6591 110.128 40.1738 110.742 39.8169C111.356 39.46 112.027 39.2887 112.769 39.2887C113.511 39.2887 114.182 39.46 114.782 39.8169ZM111.27 40.6448C110.827 40.9018 110.485 41.2586 110.242 41.7439C110 42.215 109.871 42.7717 109.871 43.4141C109.871 44.0422 110 44.5989 110.242 45.0842C110.485 45.5695 110.827 45.9264 111.27 46.1833C111.713 46.4403 112.198 46.5687 112.755 46.5687C113.297 46.5687 113.797 46.4403 114.239 46.1833C114.682 45.9264 115.024 45.5553 115.267 45.0842C115.51 44.6131 115.638 44.0564 115.638 43.4283C115.638 42.786 115.51 42.2293 115.267 41.7582C115.024 41.2872 114.682 40.916 114.239 40.6591C113.797 40.4021 113.311 40.2737 112.755 40.2737C112.212 40.2594 111.713 40.3879 111.27 40.6448Z" fill="#292F36"/>
</g>
<defs>
<clipPath id="clip0_0_146">
<rect width="117" height="48" fill="white" transform="translate(0 0.390625)"/>
</clipPath>
</defs>
</svg>
